<?xml version="1.0" standalone="no"?>
<!DOCTYPE svg PUBLIC "-//W3C//DTD SVG 20010904//EN"
 "http://www.w3.org/TR/2001/REC-SVG-20010904/DTD/svg10.dtd">
<svg version="1.0" xmlns="http://www.w3.org/2000/svg"
 width="512.000000pt" height="512.000000pt" viewBox="0 0 512.000000 512.000000"
 preserveAspectRatio="xMidYMid meet">
<metadata>
Created by potrace 1.11, written by Peter Selinger 2001-2013
</metadata>
<g transform="translate(0.000000,512.000000) scale(0.100000,-0.100000)"
fill="#000000" stroke="none">
<path d="M2233 4232 c-9 -6 -19 -78 -26 -192 -1 -19 -6 -38 -12 -42 -6 -5 -5
-8 3 -8 7 0 10 -5 7 -10 -4 -6 -12 -7 -18 -3 -7 3 -3 -4 7 -16 14 -15 15 -20
5 -16 -13 5 -15 -6 -14 -62 1 -37 -3 -76 -7 -85 -4 -9 -4 -19 0 -22 7 -4 8
-30 3 -83 -1 -7 -8 -10 -16 -7 -8 4 -15 1 -15 -5 0 -6 -5 -11 -11 -11 -6 0
-24 -9 -40 -21 -25 -18 -29 -27 -27 -60 1 -21 5 -39 9 -39 4 0 5 -9 2 -19 -3
-12 -11 -17 -19 -14 -8 3 -14 -1 -14 -8 0 -7 -3 -10 -6 -6 -3 3 -14 -2 -25
-11 -11 -9 -22 -16 -25 -14 -5 3 -25 -14 -98 -82 -27 -25 -53 -46 -58 -46 -4
0 -8 -9 -8 -21 0 -11 -4 -18 -9 -14 -5 3 -18 -8 -27 -25 -10 -16 -22 -30 -27
-30 -4 0 -6 -4 -3 -8 3 -5 -5 -20 -17 -33 -12 -13 -23 -26 -23 -29 -7 -28 -17
-50 -23 -50 -11 0 -33 -59 -26 -70 3 -5 3 -10 -2 -10 -8 0 -32 -47 -37 -73 -2
-6 -6 -20 -11 -30 -4 -10 -5 -21 -1 -24 3 -3 0 -13 -7 -21 -6 -8 -12 -25 -13
-36 -1 -12 -4 -28 -7 -36 -9 -24 -19 -109 -22 -189 -2 -48 -8 -77 -17 -82 -11
-7 -11 -9 1 -9 11 0 11 -3 0 -17 -10 -11 -10 -14 -1 -9 6 4 12 2 12 -3 0 -6
-5 -11 -11 -11 -6 0 -3 -7 5 -16 9 -8 16 -21 16 -27 0 -8 -3 -7 -9 2 -5 8 -11
9 -15 3 -3 -6 -1 -14 5 -18 8 -4 7 -9 -2 -15 -9 -6 -10 -9 -2 -9 7 0 10 -10 7
-26 -3 -14 -1 -23 3 -21 4 3 8 -34 9 -81 0 -48 4 -96 9 -106 7 -15 5 -17 -6
-11 -11 7 -12 6 -2 -6 6 -8 13 -36 14 -62 2 -26 6 -47 9 -47 4 0 6 -16 5 -35
-1 -19 3 -35 7 -35 5 0 6 -5 3 -10 -3 -5 -1 -10 5 -10 7 0 10 -7 6 -15 -3 -8
-2 -25 3 -38 5 -12 15 -42 22 -67 7 -25 18 -48 24 -52 6 -5 5 -8 -4 -8 -10 0
-11 -3 -2 -13 6 -8 8 -17 4 -20 -3 -4 -1 -7 5 -7 7 0 12 -11 12 -24 0 -14 5
-28 10 -31 6 -3 10 -15 10 -26 0 -10 5 -19 11 -19 6 0 9 -7 5 -15 -3 -8 2 -19
12 -24 9 -5 16 -13 15 -18 -4 -13 8 -43 17 -43 5 0 7 -10 5 -21 -3 -12 -1 -19
2 -15 4 3 15 -11 24 -31 10 -21 18 -34 19 -29 0 5 12 -13 26 -40 14 -27 31
-52 38 -56 6 -4 11 -13 11 -20 1 -7 6 -12 13 -10 7 1 12 -2 12 -8 0 -5 13 -23
29 -39 16 -16 27 -32 24 -34 -2 -3 5 -8 16 -12 19 -6 19 -8 6 -21 -8 -9 -19
-13 -24 -10 -5 3 -12 -1 -15 -10 -4 -9 -9 -14 -13 -11 -3 4 -14 -5 -25 -18
-11 -14 -26 -25 -34 -25 -8 0 -12 -5 -9 -10 3 -6 1 -10 -5 -10 -6 0 -8 -5 -5
-10 3 -5 1 -10 -5 -10 -6 0 -8 -5 -5 -10 3 -5 2 -10 -4 -10 -5 0 -8 -9 -6 -19
4 -20 -12 -31 -55 -38 -14 -2 -29 -8 -35 -14 -5 -5 -16 -9 -25 -9 -8 0 -45
-16 -82 -35 -38 -19 -68 -32 -68 -30 0 3 -9 -4 -20 -15 -11 -11 -27 -20 -36
-20 -8 0 -12 -4 -9 -10 12 -19 -16 -10 -56 20 -23 16 -45 27 -50 24 -5 -3 -9
0 -9 5 0 6 -7 11 -15 11 -8 0 -15 4 -15 9 0 6 -9 8 -20 6 -11 -2 -20 1 -20 6
0 6 -5 7 -10 4 -6 -4 -16 -2 -23 3 -15 12 -58 21 -117 23 -25 2 -51 7 -59 13
-11 8 -13 8 -8 0 4 -7 -9 -11 -36 -13 -23 -1 -58 -4 -77 -7 -19 -3 -47 -7 -62
-7 -16 -1 -28 -6 -28 -10 0 -5 -5 -5 -10 -2 -6 3 -10 2 -10 -3 0 -5 -18 -12
-40 -16 -22 -3 -55 -15 -74 -25 -19 -11 -37 -17 -40 -14 -3 4 -6 1 -6 -5 0 -7
-7 -12 -15 -12 -8 0 -15 -4 -15 -9 0 -8 -37 -24 -52 -22 -5 1 -8 -4 -8 -9 0
-6 -6 -10 -13 -10 -7 0 -18 -9 -25 -20 -7 -11 -19 -20 -28 -20 -8 0 -13 -4
-10 -9 3 -4 -6 -13 -20 -20 -14 -6 -23 -15 -19 -20 3 -5 -4 -13 -16 -16 -11
-4 -18 -9 -15 -12 2 -3 -4 -14 -14 -26 -11 -11 -17 -25 -13 -30 3 -6 2 -8 -3
-5 -5 3 -15 0 -22 -8 -7 -8 -10 -14 -7 -14 3 0 -6 -17 -19 -38 -14 -20 -28
-49 -31 -64 -4 -17 -12 -25 -19 -21 -6 3 -8 3 -4 -2 4 -4 1 -23 -7 -42 -8 -19
-14 -40 -12 -46 1 -7 -3 -11 -9 -10 -6 1 -10 -8 -9 -20 1 -12 -2 -28 -8 -35
-6 -8 -5 -12 4 -12 9 0 10 -3 4 -8 -15 -11 -17 -27 -16 -150 1 -63 6 -123 12
-134 8 -15 8 -19 0 -14 -7 5 -9 1 -5 -8 3 -9 10 -16 16 -16 5 0 6 -5 3 -10 -4
-6 -1 -17 5 -25 11 -13 321 -15 2396 -15 l2384 0 -2 467 c-2 304 -7 468 -13
467 -5 0 -19 8 -29 18 -11 10 -26 18 -33 18 -7 0 -13 5 -13 11 0 6 -7 9 -15 5
-10 -3 -15 1 -15 12 0 13 -2 14 -9 4 -7 -11 -9 -10 -15 3 -3 9 -10 14 -15 11
-5 -4 -17 1 -25 10 -9 8 -16 13 -16 9 0 -3 -13 1 -30 10 -16 8 -33 14 -37 13
-4 -1 -18 3 -31 10 -12 7 -27 10 -32 7 -6 -3 -10 -1 -10 6 0 8 -5 7 -17 -2
-11 -10 -14 -10 -9 -1 5 8 0 12 -16 13 -63 3 -123 7 -123 9 0 8 -82 5 -93 -3
-7 -6 -12 -6 -12 0 0 5 -7 10 -15 10 -8 0 -15 -5 -15 -10 0 -5 -6 -4 -14 2
-11 9 -16 9 -21 1 -4 -7 -16 -10 -26 -7 -10 3 -21 1 -24 -3 -3 -5 -14 -7 -25
-5 -11 2 -20 -1 -20 -7 0 -6 -3 -8 -7 -5 -3 4 -17 0 -31 -9 -17 -11 -22 -12
-17 -3 6 11 5 12 -6 2 -7 -7 -20 -13 -28 -13 -8 0 -23 -8 -34 -18 -15 -12 -18
-13 -12 -2 7 12 5 12 -11 -1 -10 -9 -34 -22 -51 -30 -18 -8 -33 -17 -33 -21 0
-5 -7 -8 -15 -8 -8 0 -23 -10 -35 -22 -11 -12 -20 -18 -20 -13 0 4 -8 -2 -19
-13 -10 -12 -21 -22 -25 -22 -7 0 -32 -25 -70 -71 -17 -20 -19 -21 -28 -5 -5
10 -7 20 -4 23 3 4 1 12 -5 19 -6 8 -9 21 -5 29 3 9 2 13 -4 10 -6 -3 -13 2
-16 12 -21 65 -74 164 -74 138 0 -5 -8 1 -17 12 -10 11 -33 26 -50 34 -18 7
-33 18 -33 22 0 5 -6 7 -12 5 -7 -3 -24 1 -37 8 -14 7 -28 11 -33 8 -4 -3 -8
0 -8 6 0 6 -4 8 -10 5 -5 -3 -10 -2 -10 2 0 5 -10 9 -22 10 -13 0 -43 3 -68 6
-25 3 -50 6 -57 6 -7 1 -10 7 -7 15 3 7 -2 21 -11 30 -9 9 -13 16 -8 16 13 1
-68 70 -82 70 -7 0 -15 4 -17 9 -1 6 -14 12 -28 14 -14 2 -33 7 -42 11 -9 4
-22 5 -28 1 -6 -4 -9 -1 -8 5 3 12 -50 21 -130 23 -30 1 -31 3 -16 14 10 7 15
13 11 13 -4 0 6 14 23 31 16 17 27 35 24 40 -3 5 2 9 10 9 10 0 13 6 9 17 -4
11 -3 14 5 9 8 -4 12 0 12 12 0 10 8 27 18 38 10 11 17 25 15 31 -2 6 1 14 6
18 6 3 11 15 11 26 0 11 4 18 8 15 4 -2 9 7 10 21 1 14 6 31 11 37 4 6 9 18
10 26 7 93 15 129 25 123 6 -4 4 2 -4 12 -9 11 -10 16 -2 11 9 -5 12 17 13
101 1 59 1 112 -1 118 -1 5 -2 22 -2 37 -1 15 -4 26 -7 23 -4 -2 -7 5 -7 15 0
10 3 17 7 14 4 -2 4 11 2 29 -3 17 -6 86 -8 152 -2 66 -6 156 -10 200 -3 44
-7 105 -8 135 -1 30 -6 61 -11 69 -7 11 -6 12 5 6 11 -7 12 -6 3 6 -5 8 -12
32 -13 54 -2 22 -8 46 -14 54 -10 12 -9 13 2 6 11 -6 12 -5 5 6 -5 8 -10 25
-12 39 -2 13 -6 27 -10 30 -4 3 -8 20 -9 39 -1 19 -7 37 -12 40 -5 4 -9 15 -7
26 2 11 -1 27 -5 35 -23 43 -59 134 -59 148 0 8 -3 12 -7 9 -8 -9 -34 43 -27
54 3 5 1 9 -4 9 -5 0 -22 19 -37 43 -16 23 -42 54 -58 70 -16 15 -26 27 -22
27 5 0 -11 14 -33 30 -23 17 -46 30 -50 30 -5 0 -18 9 -30 21 -12 11 -26 17
-31 14 -5 -3 -12 -1 -16 5 -3 5 -15 10 -26 10 -11 0 -17 5 -14 10 3 6 -2 11
-12 12 -32 2 -38 3 -48 10 -6 4 -23 5 -38 4 -15 -2 -27 1 -27 5 0 5 -9 9 -19
9 -13 0 -21 9 -26 30 -4 17 -10 28 -15 25 -5 -3 -10 -1 -12 4 -1 6 -14 11 -28
13 -14 2 -31 7 -39 12 -10 6 -12 5 -7 -2 5 -8 -2 -12 -21 -11 -25 0 -26 1 -8
9 18 8 18 9 2 9 -10 1 -15 6 -12 11 3 6 1 10 -5 10 -6 0 -8 5 -5 10 4 6 1 17
-5 25 -6 8 -9 19 -5 25 3 5 1 10 -4 10 -6 0 -11 11 -11 25 0 14 -4 25 -10 25
-5 0 -10 11 -10 25 0 14 -5 25 -11 25 -6 0 -8 7 -5 17 4 9 2 19 -4 23 -5 3
-11 18 -12 32 -1 15 -5 25 -9 22 -7 -4 -25 73 -21 89 2 5 -2 6 -8 2 -5 -3 -10
3 -10 14 0 11 -4 23 -10 26 -5 3 -10 15 -10 26 0 10 -4 19 -10 19 -5 0 -10 6
-10 13 -1 20 -25 46 -37 39z m132 -2540 c-3 -3 -11 0 -18 7 -9 10 -8 11 6 5
10 -3 15 -9 12 -12z"/>
</g>
</svg>
